<svg width="198" height="28" viewBox="0 0 198 28" fill="none" xmlns="http://www.w3.org/2000/svg">
<path d="M41.1951 18.0828V7.95972C41.1951 6.73921 41.1951 5.94946 41.1711 4.94434H53.5655C59.4038 4.94434 61.294 6.30844 61.294 10.3768V10.4486C61.294 13.4401 60.2651 15.0674 57.2264 15.7854C57.7528 16.4794 58.3031 17.2452 58.8534 18.0349C59.667 19.2794 60.5762 20.5956 61.5094 21.9358H57.035C56.4128 20.9546 55.7189 19.8777 54.9533 18.8007L53.2784 16.4554H45.0713V18.0828C45.0713 19.9734 45.0713 20.7631 45.0952 21.9358H41.1711C41.1951 20.8349 41.1951 19.8298 41.1951 18.0828ZM53.4219 8.2469H45.0713V13.2007H53.4219C56.4846 13.2007 57.2982 12.411 57.2982 10.6401V10.5922C57.2982 8.86912 56.4846 8.2469 53.4219 8.2469Z" fill="#1C4327"/>
<path d="M74.6337 18.0828V7.95972C74.6337 6.73921 74.6337 5.9734 74.6098 4.94434H78.5339C78.5099 5.9734 78.5099 6.71528 78.5099 7.95972V18.0828C78.5099 19.9734 78.5099 20.7392 78.5339 21.9358H74.6098C74.6337 20.811 74.6337 19.8298 74.6337 18.0828Z" fill="#1C4327"/>
<path d="M103.296 21.9358H96.6446C95.0175 18.346 90.3517 8.19904 88.7964 4.94434H93.1033L96.4531 12.5067C97.3145 14.4931 98.1998 16.599 98.9655 18.3939H101.239C101.98 16.6469 102.842 14.6366 103.679 12.6982L107.149 4.94434H111.264C109.685 8.19904 104.947 18.3221 103.296 21.9358Z" fill="#1C4327"/>
<path d="M126.51 4.94434H133.138C134.765 8.53408 139.431 18.6811 140.986 21.9358H136.679L135.315 18.8486H124.021L122.634 21.9358H118.518C120.121 18.6811 124.859 8.55801 126.51 4.94434ZM126.103 14.1819L125.433 15.6657H133.903L133.329 14.3734C132.468 12.3871 131.582 10.2811 130.841 8.48622H128.544C127.802 10.2332 126.941 12.2435 126.103 14.1819Z" fill="#1C4327"/>
<path d="M168.45 21.9358H151.079C151.103 20.8349 151.103 19.8059 151.103 18.1546V7.98365C151.103 6.73921 151.103 5.85374 151.079 4.94434H155.003C154.979 5.85374 154.979 6.76314 154.979 7.98365V18.4418H160.124C162.827 18.4418 166.536 18.4418 168.45 18.4178V21.9358Z" fill="#1C4327"/>
<path d="M185.774 18.4274C189.291 18.4274 196.086 18.4418 198.001 18.4178V21.9358H178.715V17.1973L187.592 11.6452C189.554 10.5922 191.756 9.39562 193.885 8.2469C192.138 8.2469 189.817 8.2469 188.765 8.2469C186.3 8.2469 180.725 8.2469 178.811 8.27083V4.94434H197.833V9.6828L189.506 14.7563C187.257 16.0486 184.897 17.1592 182.576 18.4276L183.501 18.4193C184.841 18.4193 185.295 18.4274 185.774 18.4274Z" fill="#1C4327"/>
<path fill-rule="evenodd" clip-rule="evenodd" d="M28.0191 0H0V28H28.0191V0ZM14.4892 24.4103L23.0786 14.5081L18.7998 12.8035L19.2788 13.7608L9.57985 24.4049H3.59933L3.59287 10.7693L6.1074 7.8975H3.59287V3.58981L13.2617 3.59989L4.43105 13.4018L8.98115 15.077L8.5022 14.2394L18.2131 3.59541H24.4208L24.4276 16.9915L22.0328 19.8633H24.4276V24.4103L14.4892 24.4103ZM20.4761 8.13682L17.3629 8.1148L14.13 11.7266L18.2011 11.6069L18.6801 12.6838L20.4761 8.13682ZM13.2918 16.2736H9.46011L9.10089 15.436L7.42454 19.624C7.74043 19.6269 8.09643 19.6248 8.48221 19.6224C9.00202 19.6193 9.57589 19.6159 10.1785 19.624L13.2918 16.2736Z" fill="#1C4327"/>
</svg>
