<svg width="56" height="56" viewBox="0 0 56 56" fill="none" xmlns="http://www.w3.org/2000/svg">
<g id="logo">
<path id="Subtract" fill-rule="evenodd" clip-rule="evenodd" d="M56 0H0V56H56V0ZM28.9574 48.8205L46.1245 29.0161L37.5727 25.6068L38.53 27.5214L19.1454 48.8097H7.19247L7.17958 21.5385L12.2052 15.7949H7.17958V7.1795L26.504 7.19966L8.85479 26.8034L17.9488 30.1539L16.9915 28.4786L36.4002 7.19071H48.8072L48.8206 33.9829L44.0343 39.7265L48.8206 39.7265V48.8205L28.9574 48.8205ZM40.9232 16.2735L34.7009 16.2295L28.2394 23.453L36.3762 23.2137L37.3334 25.3675L40.9232 16.2735ZM26.5642 32.547H18.9061L18.1881 30.8718L14.8377 39.2479C15.469 39.2537 16.1805 39.2494 16.9516 39.2448C17.9905 39.2385 19.1375 39.2316 20.342 39.2479L26.5642 32.547Z" fill="#69FF93"/>
</g>
</svg>
